<?xml version="1.0" encoding="UTF-8" standalone="no"?>
<!-- Created with Inkscape (http://www.inkscape.org/) -->

<svg
   xmlns:dc="http://purl.org/dc/elements/1.1/"
   xmlns:cc="http://creativecommons.org/ns#"
   xmlns:rdf="http://www.w3.org/1999/02/22-rdf-syntax-ns#"
   xmlns:svg="http://www.w3.org/2000/svg"
   xmlns="http://www.w3.org/2000/svg"
   xmlns:sodipodi="http://sodipodi.sourceforge.net/DTD/sodipodi-0.dtd"
   xmlns:inkscape="http://www.inkscape.org/namespaces/inkscape"
   version="1.1"
   id="svg815"
   xml:space="preserve"
   width="897.83966"
   height="256"
   viewBox="0 0 897.83963 256"
   sodipodi:docname="cradle-header.svg"
   inkscape:version="0.92.2 (5c3e80d, 2017-08-06)"><metadata
     id="metadata821"><rdf:RDF><cc:Work
         rdf:about=""><dc:format>image/svg+xml</dc:format><dc:type
           rdf:resource="http://purl.org/dc/dcmitype/StillImage" /><dc:title></dc:title></cc:Work></rdf:RDF></metadata><defs
     id="defs819"><clipPath
       clipPathUnits="userSpaceOnUse"
       id="clipPath833"><path
         d="M 5000,0 H 0 V 5000 H 5000 V 0 M 2491.02,1155.02 c 2.99,-0.01 5.99,-0.01 8.98,-0.01 2.99,0 5.99,0 8.98,0.01 466.69,0.77 843.68,62.18 845.02,137.9 0.01,0.13 0.01,0.27 0.01,0.41 0,0.13 0,0.27 -0.01,0.41 -0.07,4.11 -1.25,8.18 -3.5,12.2 -39.34,70.49 -405.1,125.71 -850.5,125.71 v 0 0 c -471.66,0 -854.01,-61.93 -854.01,-138.32 v 0 0 c 0,-1.57 0.16,-3.13 0.48,-4.68 15.14,-73.74 386.68,-132.87 844.55,-133.63"
         id="path831"
         inkscape:connector-curvature="0" /></clipPath><radialGradient
       fx="0"
       fy="0"
       cx="0"
       cy="0"
       r="1"
       gradientUnits="userSpaceOnUse"
       gradientTransform="matrix(4340.05,0,0,-4340.05,2500,2500)"
       spreadMethod="pad"
       id="radialGradient841"><stop
         style="stop-opacity:1;stop-color:#ffffff"
         offset="0"
         id="stop835" /><stop
         style="stop-opacity:1;stop-color:#ffffff"
         offset="0.69046381"
         id="stop837" /><stop
         style="stop-opacity:1;stop-color:#d4d4d4"
         offset="1"
         id="stop839" /></radialGradient><clipPath
       clipPathUnits="userSpaceOnUse"
       id="clipPath851"><path
         d="m 2500,1155.01 c -2.99,0 -5.99,0 -8.98,0.01 h 8.98 v 0 0 h 8.98 c -2.99,-0.01 -5.99,-0.01 -8.98,-0.01 m 854,137.91 v 0.42 0 0 0.4 c 0.01,-0.14 0.01,-0.28 0.01,-0.41 0,-0.14 0,-0.28 -0.01,-0.41"
         id="path849"
         inkscape:connector-curvature="0" /></clipPath><clipPath
       clipPathUnits="userSpaceOnUse"
       id="clipPath863"><path
         d="M 2508.98,1155.02 H 2500 c 471.66,0 854,61.92 854,138.32 v -0.42 c -1.34,-75.72 -378.33,-137.13 -845.02,-137.9 m -8.98,0 h -8.98 c -457.87,0.76 -829.41,59.89 -844.55,133.63 15.24,-74.23 391.55,-133.63 853.53,-133.63 m 854,138.32 c 0,4.25 -1.18,8.45 -3.5,12.6 2.25,-4.02 3.43,-8.09 3.5,-12.2 v -0.4"
         id="path861"
         inkscape:connector-curvature="0" /></clipPath><clipPath
       clipPathUnits="userSpaceOnUse"
       id="clipPath875"><path
         d="m 2500,1155.02 v 0 c -461.98,0 -838.29,59.4 -853.53,133.63 -0.32,1.55 -0.48,3.11 -0.48,4.68 v 0 c 0,76.39 382.35,138.32 854.01,138.32 v 0 c 445.4,0 811.16,-55.22 850.5,-125.71 2.32,-4.15 3.5,-8.35 3.5,-12.6 v 0 c 0,-76.4 -382.34,-138.32 -854,-138.32"
         id="path873"
         inkscape:connector-curvature="0" /></clipPath><clipPath
       clipPathUnits="userSpaceOnUse"
       id="clipPath887"><path
         d="m 2387.55,3591.04 -532.35,-220.5 c -72,-29.82 -129.21,-87.03 -159.03,-159.03 l -220.51,-532.35 c -29.82,-72 -29.82,-152.9 0,-224.9 l 220.51,-532.35 c 29.82,-72 87.03,-129.21 159.03,-159.03 l 532.35,-220.51 c 72,-29.82 152.9,-29.82 224.91,0 l 532.34,220.51 c 72,29.82 129.21,87.03 159.03,159.03 l 220.51,532.34 c 29.82,72.01 29.82,152.91 0,224.91 l -220.51,532.34 c -29.82,72.01 -87.03,129.22 -159.03,159.04 l -532.35,220.51 c -72,29.82 -152.9,29.82 -224.9,-0.01 z"
         id="path885"
         inkscape:connector-curvature="0" /></clipPath><linearGradient
       x1="0"
       y1="0"
       x2="1"
       y2="0"
       gradientUnits="userSpaceOnUse"
       gradientTransform="matrix(2093.41,0,0,-2093.41,1453.29,2566.71)"
       spreadMethod="pad"
       id="linearGradient895"><stop
         style="stop-opacity:1;stop-color:#f20c0c"
         offset="0"
         id="stop889" /><stop
         style="stop-opacity:1;stop-color:#f20c0c"
         offset="0.002643"
         id="stop891" /><stop
         style="stop-opacity:1;stop-color:#f2600a"
         offset="1"
         id="stop893" /></linearGradient></defs><sodipodi:namedview
     pagecolor="#ffffff"
     bordercolor="#666666"
     borderopacity="1"
     objecttolerance="10"
     gridtolerance="10"
     guidetolerance="10"
     inkscape:pageopacity="0"
     inkscape:pageshadow="2"
     inkscape:window-width="3840"
     inkscape:window-height="2061"
     id="namedview817"
     showgrid="false"
     inkscape:zoom="0.48498685"
     inkscape:cx="1199.694"
     inkscape:cy="401.95829"
     inkscape:window-x="-11"
     inkscape:window-y="-11"
     inkscape:window-maximized="1"
     inkscape:current-layer="g825" /><g
     id="g823"
     inkscape:groupmode="layer"
     inkscape:label="ink_ext_XXXXXX"
     transform="matrix(1.3333333,0,0,-1.3333333,-220.01651,490.7279)"><g
       id="g825"
       transform="scale(0.1)"><g
         id="g860"><g
           transform="matrix(0.91759739,0,0,0.91716443,135.97452,258.55159)"
           id="g847"><g
             id="g881"
             style="fill:#ff5500;fill-opacity:1"
             transform="translate(196.82888,117.55058)"><g
               id="g883"
               clip-path="url(#clipPath887)"
               style="fill:#ff5500;fill-opacity:1"><path
                 d="m 2387.55,3591.04 -532.35,-220.5 c -72,-29.82 -129.21,-87.03 -159.03,-159.03 l -220.51,-532.35 c -29.82,-72 -29.82,-152.9 0,-224.9 l 220.51,-532.35 c 29.82,-72 87.03,-129.21 159.03,-159.03 l 532.35,-220.51 c 72,-29.82 152.9,-29.82 224.91,0 l 532.34,220.51 c 72,29.82 129.21,87.03 159.03,159.03 l 220.51,532.34 c 29.82,72.01 29.82,152.91 0,224.91 l -220.51,532.34 c -29.82,72.01 -87.03,129.22 -159.03,159.04 l -532.35,220.51 c -72,29.82 -152.9,29.82 -224.9,-0.01"
                 style="fill:#ff5500;fill-opacity:1;fill-rule:nonzero;stroke:none"
                 id="path897"
                 inkscape:connector-curvature="0" /></g></g><path
             d="m 2494.1389,2093.0106 c -235.27,0 -429.67,191.41 -433.33,426.68 l -0.17,322.31 c 0,239.04 194.47,433.51 433.5,433.51 h 692.7 c 27.54,0 45.35,-8.81 52.93,-26.18 11.44,-26.24 -10.49,-52.87 -17.48,-60.41 l -165.61,-165.63 c -2.81,-2.7 -59.83,-56.07 -149.78,-56.07 h -412.76 c -69.04,0 -125.21,-56.17 -125.21,-125.21 v -315.5 c 0,-69.05 56.17,-125.22 125.21,-125.22 h 412.76 c 89.95,0 146.97,-53.36 149.35,-55.64 l 166.04,-166.05 c 6.99,-7.54 28.92,-34.17 17.48,-60.41 -7.58,-17.38 -25.39,-26.18 -52.93,-26.18 h -692.7"
             style="fill:#ffffff;fill-opacity:1;fill-rule:nonzero;stroke:none"
             id="path899"
             inkscape:connector-curvature="0" /></g><text
           transform="scale(1,-1)"
           id="text851"
           y="-2253.5891"
           x="4117.0269"
           style="font-style:normal;font-variant:normal;font-weight:normal;font-stretch:normal;font-size:1300px;line-height:1.25;font-family:'Century Gothic';-inkscape-font-specification:'Century Gothic, Normal';font-variant-ligatures:normal;font-variant-caps:normal;font-variant-numeric:normal;font-feature-settings:normal;text-align:start;letter-spacing:0px;word-spacing:0px;writing-mode:lr-tb;text-anchor:start;fill:#000000;fill-opacity:1;stroke:none;stroke-width:7.5"
           xml:space="preserve"><tspan
             style="font-style:normal;font-variant:normal;font-weight:normal;font-stretch:normal;font-size:1300px;font-family:'Century Gothic';-inkscape-font-specification:'Century Gothic, Normal';font-variant-ligatures:normal;font-variant-caps:normal;font-variant-numeric:normal;font-feature-settings:normal;text-align:start;writing-mode:lr-tb;text-anchor:start;stroke-width:7.5"
             y="-2253.5891"
             x="4117.0269"
             id="tspan849"
             sodipodi:role="line">Cradle</tspan></text>
</g></g></g></svg>